<svg width="289" height="93" viewBox="0 0 289 93" fill="none" xmlns="http://www.w3.org/2000/svg">
<g filter="url(#filter0_d_252_818)">
<rect x="5.5" y="1.5" width="278" height="82" rx="7.5" fill="#FF7800" fill-opacity="0.3" stroke="#FF7800" stroke-width="3"/>
<rect x="52" y="21" width="27" height="36" rx="2" fill="#FF7800" fill-opacity="0.3" stroke="#FF7800" stroke-width="2"/>
<rect x="15" y="21" width="27" height="36" rx="2" fill="#FF7800" fill-opacity="0.3" stroke="#FF7800" stroke-width="2"/>
<rect x="89" y="21" width="27" height="36" rx="2" fill="#FF7800" fill-opacity="0.3" stroke="#FF7800" stroke-width="2"/>
<rect x="175" y="21" width="27" height="36" rx="2" fill="#FF7800" fill-opacity="0.3" stroke="#FF7800" stroke-width="2"/>
<path d="M126 23C126 21.8954 126.895 21 128 21H144V84H126V23Z" fill="#FF7800" fill-opacity="0.3" stroke="#FF7800" stroke-width="2"/>
<path d="M144 21H161C162.105 21 163 21.8954 163 23V84H144V21Z" fill="#FF7800" fill-opacity="0.3" stroke="#FF7800" stroke-width="2"/>
<rect x="212" y="21" width="27" height="36" rx="2" fill="#FF7800" fill-opacity="0.3" stroke="#FF7800" stroke-width="2"/>
<rect x="249" y="21" width="27" height="36" rx="2" fill="#FF7800" fill-opacity="0.3" stroke="#FF7800" stroke-width="2"/>
</g>
<defs>
<filter id="filter0_d_252_818" x="0" y="0" width="289" height="93" filterUnits="userSpaceOnUse" color-interpolation-filters="sRGB">
<feFlood flood-opacity="0" result="BackgroundImageFix"/>
<feColorMatrix in="SourceAlpha" type="matrix" values="0 0 0 0 0 0 0 0 0 0 0 0 0 0 0 0 0 0 127 0" result="hardAlpha"/>
<feOffset dy="4"/>
<feGaussianBlur stdDeviation="2"/>
<feComposite in2="hardAlpha" operator="out"/>
<feColorMatrix type="matrix" values="0 0 0 0 0 0 0 0 0 0 0 0 0 0 0 0 0 0 0.25 0"/>
<feBlend mode="normal" in2="BackgroundImageFix" result="effect1_dropShadow_252_818"/>
<feBlend mode="normal" in="SourceGraphic" in2="effect1_dropShadow_252_818" result="shape"/>
</filter>
</defs>
</svg>
