<svg width="42" height="59" viewBox="0 0 42 59" fill="none" xmlns="http://www.w3.org/2000/svg">
<path d="M5.5 2H35.5L37.75 4.16V23.6H40V45.5L37 45.5V57.5H33.25V48.8H7V57.5H3.25V45.5H1V23.6H3.25V4.16L5.5 2Z" fill="#D9D9D9"/>
<path fill-rule="evenodd" clip-rule="evenodd" d="M5.91854 0.68457C4.26169 0.68457 2.91854 2.02771 2.91854 3.68457V23.2361H1C0.447715 23.2361 0 23.6838 0 24.2361V45.7474C0 46.2997 0.447717 46.7474 1 46.7474H1.93891V57.5238V58.5238H2.93891H7.83709H8.83709V57.5238V50.6867H31.328V57.5238V58.5238H32.328H37.2262H38.2262V57.5238V46.7474H40.1447C40.697 46.7474 41.1447 46.2997 41.1447 45.7474V24.2361C41.1447 23.6838 40.697 23.2361 40.1447 23.2361H38.2262V3.68457C38.2262 2.02772 36.883 0.68457 35.2262 0.68457H5.91854ZM36.2262 46.7474H32.3483C31.796 46.7474 31.3483 46.2997 31.3483 45.7474V43.9967H9.79637V45.7474C9.79637 46.2997 9.34865 46.7474 8.79637 46.7474H3.93891V56.5238H6.83709V49.6867V48.6867H7.83709H32.328H33.328V49.6867V56.5238H36.2262V46.7474ZM31.3483 35.5344V42.4967H9.79637V35.5344H31.3483ZM31.3483 24.2361V34.0344H9.79637V24.2361C9.79637 23.6838 9.34865 23.2361 8.79637 23.2361H4.91854V3.68457C4.91854 3.13228 5.36626 2.68457 5.91854 2.68457H35.2262C35.7785 2.68457 36.2262 3.13228 36.2262 3.68457V23.2361H32.3483C31.796 23.2361 31.3483 23.6838 31.3483 24.2361ZM1.5 45.2474V24.7361H8.29637V45.2474H1.5ZM32.8483 24.7361V45.2474H39.6447V24.7361H32.8483Z" fill="#919191"/>
</svg>
