<svg width="272" height="95" viewBox="0 0 272 95" fill="none" xmlns="http://www.w3.org/2000/svg">
<g filter="url(#filter0_d_252_730)">
<path d="M90.4809 2H255.932C263.603 2 266 7.66667 266 10.5V75C266 82 259.768 85 255.932 85H17.1269C8.49759 85 6.89938 78.5 6.57971 76.5C5.60465 70.3996 5.2026 66.0247 10.8944 50.5C17.1271 33.5 31.0223 20.7098 41.099 14.5C50.6878 8.59091 64.5914 2 90.4809 2Z" fill="#EB3535" fill-opacity="0.2" stroke="#EB3535" stroke-width="3"/>
<path d="M106.115 23.5C106.115 22.3954 107.011 21.5 108.115 21.5H124.096V84.5H106.115V23.5Z" stroke="#EB3535" stroke-width="2"/>
<path d="M124.098 21.5H140.079C141.183 21.5 142.079 22.3954 142.079 23.5V84.5H124.098V21.5Z" stroke="#EB3535" stroke-width="2"/>
<rect x="151.072" y="21.5" width="26.9727" height="36" rx="2" stroke="#EB3535" stroke-width="2"/>
<rect x="188.037" y="21.5" width="26.9727" height="36" rx="2" stroke="#EB3535" stroke-width="2"/>
<rect x="225.027" y="21.5" width="26.9727" height="36" rx="2" stroke="#EB3535" stroke-width="2"/>
<path d="M71.4954 20.5H88.1078C90.1212 20.5 91.128 22.6143 91.128 23.6714L91.1282 54.3286C91.1282 56.8657 89.1146 57.5 87.6044 57.5H31.7269C29.7133 57.5 26.1895 57.5 26.1895 52.7429C26.1895 48.5143 30.1433 41.9821 39.6767 33.5C48.6682 25.5 58.6588 20.5 71.4954 20.5Z" stroke="#EB3535" stroke-width="2"/>
<path d="M7.20754 65H20.6948C21.6939 65.1667 23.692 66.2 23.692 69C23.692 72.5 23.1924 75 20.6948 75C18.6967 75 10.5377 75 6.70801 75" stroke="#EB3535" stroke-width="2"/>
</g>
<defs>
<filter id="filter0_d_252_730" x="0.5" y="0.5" width="271" height="94" filterUnits="userSpaceOnUse" color-interpolation-filters="sRGB">
<feFlood flood-opacity="0" result="BackgroundImageFix"/>
<feColorMatrix in="SourceAlpha" type="matrix" values="0 0 0 0 0 0 0 0 0 0 0 0 0 0 0 0 0 0 127 0" result="hardAlpha"/>
<feOffset dy="4"/>
<feGaussianBlur stdDeviation="2"/>
<feComposite in2="hardAlpha" operator="out"/>
<feColorMatrix type="matrix" values="0 0 0 0 0 0 0 0 0 0 0 0 0 0 0 0 0 0 0.25 0"/>
<feBlend mode="normal" in2="BackgroundImageFix" result="effect1_dropShadow_252_730"/>
<feBlend mode="normal" in="SourceGraphic" in2="effect1_dropShadow_252_730" result="shape"/>
</filter>
</defs>
</svg>
